<?xml version="1.0" encoding="utf-8"?>
<!-- Generator: Adobe Illustrator 27.5.0, SVG Export Plug-In . SVG Version: 6.00 Build 0)  -->
<svg version="1.1" xmlns="http://www.w3.org/2000/svg" xmlns:xlink="http://www.w3.org/1999/xlink" x="0px" y="0px"
	 viewBox="0 0 500 500" style="enable-background:new 0 0 500 500;" xml:space="preserve">
<g id="Plants">
	<g id="Pines_3_">
		<g id="Pine_27_">
			<path style="fill:#E0E0E0;" d="M445.011,236.752c6.185,4.565,34.531,3.936,40.915,0c0.563-2.469,0.276-7.971-0.606-15.204
				l-7.608,4.09l6.88-9.636c-1.003-7.012-2.404-15.105-4.046-23.396l-4.708,2.624l4.024-6.042c-0.32-1.555-0.639-3.109-0.97-4.664
				l-5.369,2.635l4.609-6.163c-1.367-6.262-2.823-12.404-4.289-18.037l-4.278,1.246c0,0,1.61-2.415,3.308-4.917
				c-1.5-5.546-2.999-10.474-4.41-14.377c-0.507-1.4-1.753-2.106-2.988-2.106c-1.246,0-2.492,0.705-2.999,2.106
				c-1.896,5.248-3.958,12.381-5.987,20.375l3.793,6.362l-4.399-3.892c-0.915,3.693-1.819,7.541-2.679,11.444l6.075,10.86
				l-7.321-5.116c-1.213,5.733-2.337,11.488-3.33,17.001l5.943,5.899l-6.593-2.117c-0.121,0.673-0.232,1.334-0.342,1.985
				l6.086,8.203l-6.803-3.727C445.088,223.929,444.228,233.312,445.011,236.752z"/>
			<path style="fill:#F0F0F0;" d="M463.968,210.426l-8.631-16.25l8.778,10.763l1.353-50.42l1.055,30.68l6.146-8.878l-5.956,14.419
				l1.068,31.075l11.712-10.797l-11.556,15.318l0.981,44.935c0,1.813-6.142,1.813-6.142,0L463.968,210.426L463.968,210.426z"/>
		</g>
		<g id="Pine_26_">
			<path style="fill:#E0E0E0;" d="M402.555,198.507c5.174,3.814,28.874,3.283,34.218,0c0.37-1.609,0.306-4.764-0.089-8.949
				l-6.156,2.229l5.722-6.156c-0.652-5.376-1.682-11.878-2.953-18.743l-3.477,1.449l3.026-3.839
				c-0.129-0.676-0.265-1.352-0.394-2.028l-8.273,4.209l7.154-9.745c-1.111-5.352-2.31-10.711-3.541-15.733l-5.376,4.49l4.652-7.355
				c-0.338-1.344-0.684-2.656-1.022-3.927l-4.756,2.583l3.895-5.714c-1.03-3.654-2.052-6.913-3.018-9.585
				c-0.418-1.167-1.464-1.754-2.503-1.754c-1.038,0-2.084,0.588-2.503,1.754c-1.448,4.008-3.01,9.319-4.563,15.298
				c1.352,3.138,2.422,5.593,2.422,5.593L411.592,141c-0.378,1.521-0.748,3.082-1.119,4.66c1.626,4.981,3.654,11.226,3.654,11.355
				c-0.104-0.193-2.503-4.482-4.434-7.935C405.025,169.81,401.307,193.051,402.555,198.507z"/>
			<path style="fill:#F0F0F0;" d="M418.408,176.488l-7.218-13.59l7.342,9.001l1.132-42.167l0.882,25.658l5.141-7.425l-4.981,12.059
				l0.893,25.988l9.794-9.029l-9.664,12.811l0.82,45.042c0,1.516-5.137,1.516-5.137,0L418.408,176.488L418.408,176.488z"/>
		</g>
		<g id="Pine_25_">
			<path style="fill:#E0E0E0;" d="M47.424,200c5.602,4.138,31.271,3.564,37.056,0c0.314-1.385,0.34-3.842,0.113-7.084l-8.756,4.017
				l8.373-8.295c-0.496-4.661-1.315-10.316-2.361-16.441l-3.198,1.716l2.919-3.363c-0.601-3.459-1.272-7.049-1.995-10.682
				l-5.21,4.191l4.653-6.97c-0.148-0.758-0.305-1.516-0.462-2.265l-7.127,5.881l6.038-11.004c-1.115-5.088-2.291-10.089-3.468-14.76
				l-4.652,3.538c0.113-0.2,1.969-3.363,3.834-6.657c-1.534-5.829-3.076-10.996-4.513-14.977c-0.462-1.263-1.586-1.899-2.71-1.899
				c-1.133,0-2.257,0.636-2.718,1.899c-1.368,3.79-2.832,8.643-4.296,14.132v0.009l2.84,6.239l-3.389-4.147
				c-0.915,3.511-1.821,7.24-2.701,11.065l6.09,13.418l-7.197-8.513c-0.113,0.523-0.235,1.054-0.34,1.586l2.928,6.927l-3.407-4.714
				c-1.237,5.846-2.379,11.727-3.355,17.286l8.443,10.177l-9.14-6.099c-0.209,1.281-0.41,2.544-0.601,3.773l4.287,4.74l-4.792-1.377
				C47.336,190.277,46.796,197.247,47.424,200z"/>
			<path style="opacity:0.15;" d="M47.424,200c5.602,4.138,31.271,3.564,37.056,0c0.314-1.385,0.34-3.842,0.113-7.084l-8.756,4.017
				l8.373-8.295c-0.496-4.661-1.315-10.316-2.361-16.441l-3.198,1.716l2.919-3.363c-0.601-3.459-1.272-7.049-1.995-10.682
				l-5.21,4.191l4.653-6.97c-0.148-0.758-0.305-1.516-0.462-2.265l-7.127,5.881l6.038-11.004c-1.115-5.088-2.291-10.089-3.468-14.76
				l-4.652,3.538c0.113-0.2,1.969-3.363,3.834-6.657c-1.534-5.829-3.076-10.996-4.513-14.977c-0.462-1.263-1.586-1.899-2.71-1.899
				c-1.133,0-2.257,0.636-2.718,1.899c-1.368,3.79-2.832,8.643-4.296,14.132v0.009l2.84,6.239l-3.389-4.147
				c-0.915,3.511-1.821,7.24-2.701,11.065l6.09,13.418l-7.197-8.513c-0.113,0.523-0.235,1.054-0.34,1.586l2.928,6.927l-3.407-4.714
				c-1.237,5.846-2.379,11.727-3.355,17.286l8.443,10.177l-9.14-6.099c-0.209,1.281-0.41,2.544-0.601,3.773l4.287,4.74l-4.792-1.377
				C47.336,190.277,46.796,197.247,47.424,200z"/>
			<path style="fill:#E0E0E0;" d="M64.593,176.168l-7.815-14.714l7.948,9.745l1.225-45.653l0.955,27.78l5.566-8.039l-5.393,13.056
				l0.967,28.137l10.604-9.776l-10.464,13.87l0.888,48.637c0,1.641-5.562,1.641-5.562,0L64.593,176.168L64.593,176.168z"/>
		</g>
		<g id="Pine_22_">
			<path style="fill:#E0E0E0;" d="M19.58,215.7c6.334,3.903,34.477,4.522,40.619,0c0.557-2.457,0.27-7.972-0.61-15.204l-7.963,3.398
				l7.345-8.155c-0.706-4.958-1.612-10.49-2.666-16.267l-4.879,2.135l4.557-3.86c-0.253-1.342-0.505-2.692-0.767-4.051l-8.146,4.696
				l7.319-8.87c-0.906-4.496-1.873-9.018-2.884-13.435l-4.201,2.258l3.433-5.913c-1.045-4.304-3.039-12.019-4.094-15.801
				l-4.278,3.398l3.616-5.733c-1.063-3.686-2.117-6.988-3.119-9.767c-0.506-1.385-1.734-2.083-2.971-2.083
				c-1.237,0-2.475,0.697-2.971,2.083c-1.533,4.234-3.171,9.697-4.801,15.849v0.009l3.32,7.545l-4.417-3.346
				c-1.15,4.539-2.283,9.349-3.38,14.263v0.009l5.567,14.045l-6.674-8.931c-0.392,1.873-0.784,3.755-1.168,5.628l3.973,7.798
				l-4.548-4.879c-1.089,5.559-2.074,11.013-2.901,16.101v0.009l9.088,14.271l-9.837-9.401c-0.235,1.533-0.444,3.023-0.636,4.452
				l6.857,8.416l-7.397-3.956C19.257,208.704,19.066,213.461,19.58,215.7z"/>
			<g>
				<path style="fill:#F0F0F0;" d="M29.337,180.891l8.526,12.07l0.895-26.047l-4.601-15.572l4.771,10.635l0.959-27.908l1.081,40.271
					l4.787-5.719l-4.646,11.004l0.614,22.855l9.9-9.846l-9.721,16.539l0.658,50.701c0,1.799-6.097,1.799-6.097,0l1.132-59.138
					L29.337,180.891z"/>
			</g>
		</g>
		<g id="Pine_21_">
			<path style="fill:#E0E0E0;" d="M132.202,170.307c5.415,3.329,29.439,3.862,34.684,0c0.471-2.086,0.24-6.72-0.494-12.815
				l-6.821,4.017l6.172-8.899c-0.703-4.89-1.63-10.405-2.719-16.114l-4.658,3.19l4.079-6.226c-0.131-0.649-0.255-1.29-0.386-1.939
				l-5.685,3.692l4.967-7.199c-1.02-4.913-2.117-9.826-3.252-14.484l-6.288,4.148l5.546-7.192c-0.316-1.259-0.633-2.487-0.95-3.692
				l-4.596,3.468l3.839-6.288c-1.213-4.434-2.418-8.374-3.553-11.518c-0.433-1.189-1.483-1.784-2.542-1.784
				c-1.05,0-2.109,0.595-2.533,1.784c-0.958,2.642-1.962,5.84-2.982,9.432v0.008l2.248,5.886l-2.773-3.777l-0.039-0.054
				c-1.506,5.484-3.028,11.718-4.442,18.137l3.631,12.931l-4.851-7.261c-0.919,4.419-1.777,8.845-2.541,13.093v0.008l5.276,17.682
				l-6.55-10.173C132.326,158.836,131.515,167.279,132.202,170.307z"/>
			<path style="opacity:0.15;" d="M132.202,170.307c5.415,3.329,29.439,3.862,34.684,0c0.471-2.086,0.24-6.72-0.494-12.815
				l-6.821,4.017l6.172-8.899c-0.703-4.89-1.63-10.405-2.719-16.114l-4.658,3.19l4.079-6.226c-0.131-0.649-0.255-1.29-0.386-1.939
				l-5.685,3.692l4.967-7.199c-1.02-4.913-2.117-9.826-3.252-14.484l-6.288,4.148l5.546-7.192c-0.316-1.259-0.633-2.487-0.95-3.692
				l-4.596,3.468l3.839-6.288c-1.213-4.434-2.418-8.374-3.553-11.518c-0.433-1.189-1.483-1.784-2.542-1.784
				c-1.05,0-2.109,0.595-2.533,1.784c-0.958,2.642-1.962,5.84-2.982,9.432v0.008l2.248,5.886l-2.773-3.777l-0.039-0.054
				c-1.506,5.484-3.028,11.718-4.442,18.137l3.631,12.931l-4.851-7.261c-0.919,4.419-1.777,8.845-2.541,13.093v0.008l5.276,17.682
				l-6.55-10.173C132.326,158.836,131.515,167.279,132.202,170.307z"/>
			<g>
				<path style="fill:#E0E0E0;" d="M140.537,140.584l7.281,10.307l0.764-22.242l-3.929-13.297l4.074,9.081l0.819-23.831
					l0.923,34.388l4.088-4.884l-3.967,9.396l0.524,19.516l8.454-8.408l-8.301,14.123l0.562,38.063c0,1.536-5.206,1.536-5.206,0
					l0.967-45.268L140.537,140.584z"/>
			</g>
		</g>
		<g id="Pine_20_">
			<path style="fill:#E0E0E0;" d="M376.162,187.674c5.848,3.59,31.772,4.164,37.429,0c0.232-1.028,0.313-2.642,0.232-4.719
				l-6.04,2.692l5.616-8.621c-0.353-3.569-0.918-7.764-1.633-12.342l-5.879,3.075l5.163-7.482c-0.121-0.726-0.252-1.462-0.383-2.208
				l-9.529,5.526l8.309-12.281c-1.28-6.776-2.763-13.824-4.316-20.529l-5.526,4.154l4.406-8.903
				c-0.212-0.857-0.423-1.694-0.625-2.531l-5.455,4.336l4.174-9.287c-1.522-5.778-3.055-10.91-4.487-14.873
				c-0.464-1.28-1.603-1.926-2.743-1.926c-1.139,0-2.279,0.645-2.743,1.926c-1.371,3.801-2.833,8.672-4.306,14.167l1.644,9.993
				l-3.146-4.175c-1.382,5.576-2.753,11.566-4.003,17.575l4.124,12.896l-5.314-7.048c-1.21,6.07-2.279,12.039-3.126,17.474
				l2.39,5.848l-2.995-1.815c-0.212,1.442-0.403,2.843-0.564,4.174l5.213,8.672l-5.677-4.588
				C375.839,181.946,375.728,185.788,376.162,187.674z"/>
			<path style="opacity:0.15;" d="M376.162,187.674c5.848,3.59,31.772,4.164,37.429,0c0.232-1.028,0.313-2.642,0.232-4.719
				l-6.04,2.692l5.616-8.621c-0.353-3.569-0.918-7.764-1.633-12.342l-5.879,3.075l5.163-7.482c-0.121-0.726-0.252-1.462-0.383-2.208
				l-9.529,5.526l8.309-12.281c-1.28-6.776-2.763-13.824-4.316-20.529l-5.526,4.154l4.406-8.903
				c-0.212-0.857-0.423-1.694-0.625-2.531l-5.455,4.336l4.174-9.287c-1.522-5.778-3.055-10.91-4.487-14.873
				c-0.464-1.28-1.603-1.926-2.743-1.926c-1.139,0-2.279,0.645-2.743,1.926c-1.371,3.801-2.833,8.672-4.306,14.167l1.644,9.993
				l-3.146-4.175c-1.382,5.576-2.753,11.566-4.003,17.575l4.124,12.896l-5.314-7.048c-1.21,6.07-2.279,12.039-3.126,17.474
				l2.39,5.848l-2.995-1.815c-0.212,1.442-0.403,2.843-0.564,4.174l5.213,8.672l-5.677-4.588
				C375.839,181.946,375.728,185.788,376.162,187.674z"/>
			<path style="fill:#E0E0E0;" d="M396.249,163.594l7.894-14.861l-8.028,9.843l-1.238-46.111l-0.964,28.058l-5.621-8.12
				l5.447,13.187l-0.977,28.419l-10.711-9.874l10.569,14.009l-0.897,52.154c0,1.658,5.617,1.658,5.617,0L396.249,163.594
				L396.249,163.594z"/>
		</g>
		<g id="Pine_19_">
			<path style="fill:#E0E0E0;" d="M109.995,173.445c5.006,3.09,27.229,3.577,32.081,0c0.371-1.622,0.27-4.936-0.178-9.331
				l-4.975,0.95l4.635-4.009c-0.216-1.707-0.464-3.53-0.749-5.438l-9.223,3.685l8.783-6.504c-0.935-5.863-2.148-12.39-3.515-18.902
				l-7.13,5.701l6.473-8.814c-0.564-2.603-1.151-5.191-1.746-7.709l-5.794,3.623l5.106-6.512c-0.556-2.256-1.112-4.442-1.668-6.527
				l-3.438,3.762l2.279-7.956c-0.873-3.028-1.73-5.747-2.549-8.01c-0.402-1.105-1.375-1.653-2.348-1.653
				c-0.981,0-1.954,0.548-2.348,1.653c-1.367,3.777-2.843,8.791-4.303,14.437v0.008l2.603,5.585l-3.414-2.364
				c-1.089,4.395-2.155,9.061-3.152,13.765v0.008l5.237,10.814l-6.087-6.666c-0.456,2.263-0.896,4.511-1.298,6.721l3.383,5.083
				l-3.901-2.279c-0.842,4.743-1.553,9.231-2.07,13.171v0.008l5.438,8.621l-6.048-3.26
				C109.71,169.003,109.655,171.946,109.995,173.445z"/>
			<path style="fill:#F0F0F0;" d="M127.213,152.809l6.767-12.74l-6.882,8.438l-1.061-39.528l-0.827,24.053l-4.819-6.961
				l4.669,11.304l-0.837,24.362l-9.182-8.464l9.06,12.009l-0.769,39.505c0,1.421,4.815,1.421,4.815,0L127.213,152.809
				L127.213,152.809z"/>
		</g>
	</g>
	<g id="Shrubbery">
		<path style="fill:#F0F0F0;" d="M21.067,281.699c0.536-2.221,2.262-4.064,4.359-4.971c-1.693-0.581-2.61-2.526-2.548-4.315
			c0.062-1.789,0.892-3.452,1.751-5.023c-2.193-0.873-3.701-3.229-3.577-5.586c0.125-2.357,1.873-4.54,4.145-5.178
			c-1.967-2.485-2.924-6.23-1.036-8.775c1.549-2.089,4.434-2.649,7.034-2.636c2.491,0.013,5.287,0.594,6.638,2.687
			c0.18-3.091,3.839-5.424,6.718-4.283c-0.569-0.735-0.968-1.592-1.194-2.492c-0.527-2.099-0.135-4.424,1.016-6.252
			c0.486-0.773,1.207-1.748,2.122-2.028c0.353-0.108,0.723-0.083,1.086-0.075c1.158,0.026,2.303-0.131,3.456,0.081
			c-1.098-3.3,0.07-7.227,2.792-9.392c2.722-2.165,6.812-2.417,9.779-0.603c-0.139-3.596,2.785-7.049,6.355-7.505
			c3.569-0.456,7.268,2.151,8.038,5.666c0.77-2.248,3.183-3.813,5.55-3.598c2.367,0.215,4.459,2.188,4.812,4.538
			c-0.67-4.011,2.735-8.21,6.798-8.384c-2.217-0.439-3.698-2.852-3.506-5.103c0.192-2.252,1.769-4.22,3.726-5.351
			c-1.497-1.243-2.037-3.508-1.264-5.293c0.774-1.785,2.796-2.94,4.727-2.698c0.27-3.099,3.375-5.543,6.484-5.433
			c3.109,0.11,5.898,2.479,6.892,5.426c2.759-1.447,6.367-1.076,8.774,0.901c2.407,1.977,3.472,5.445,2.588,8.432
			c1.634-1.522,3.559-2.875,5.768-3.201c2.21-0.326,4.728,0.636,5.632,2.678c0.764-2.291,2.053-4.559,4.177-5.709
			c2.125-1.15,5.2-0.745,6.404,1.349c0.189-1.206,0.616-2.374,1.24-3.423c0.312-0.525,0.674-1.02,1.079-1.476
			c0.164-0.184,0.326-0.399,0.501-0.57c0.062-0.061,0.108-0.128,0.178-0.186c0.176-0.142,1.087-0.631,1.284-0.546
			c-2.316-1.002-2.462-4.578-0.734-6.415c1.729-1.837,4.515-2.228,7.027-2.002c-0.167-3.026,2.54-5.903,5.571-5.921
			c3.031-0.018,5.771,2.827,5.641,5.854c1.162-2.424,4.912-2.439,6.932-0.663c2.02,1.775,2.727,4.579,3.264,7.214
			c2.433-2.605,6.843-3.047,9.744-0.976c-1.076-3.888,1.967-8.371,5.978-8.806c-1.762-3.275,1.797-7.419,5.515-7.496
			c3.718-0.076,6.95,2.505,9.425,5.28c5.294-2.743,12.707,2.292,12.109,8.225c3.743-4.511,11.848-4.158,15.184,0.662
			c1.014-3.832,5.508-6.342,9.303-5.196c-1.583-4.847,4.654-10.075,9.15-7.67c0.052-3.274,3.39-6.094,6.627-5.598
			c3.237,0.495,5.578,4.184,4.649,7.324c5.187-0.535,9.561,6.019,7.077,10.604c2.786-1.877,7.048-0.982,8.845,1.856
			c-0.917-2.305,1.988-5.02,4.226-3.951c-0.608-2.324,0.805-4.995,3.068-5.801c2.263-0.806,5.046,0.371,6.044,2.556
			c-0.054-2.898,3.708-4.689,6.401-3.618c2.693,1.071,4.242,3.939,4.943,6.751c1.757-4.046,8.477-4.436,10.689-0.619
			c-0.32-4.57,3.463-9.039,8.023-9.478c4.56-0.439,9.126,3.226,9.684,7.773c1.837-3.178,6.175-4.629,9.554-3.198
			c3.38,1.431,5.355,5.557,4.351,9.087c5.311-0.881,9.419,6.999,5.656,10.849c2.098-2.641,7.01-1.984,8.34,1.116
			c-1.207-3.054,1.931-6.841,5.155-6.223c-1.026-2.921,0.852-6.515,3.836-7.34c2.984-0.825,6.442,1.294,7.062,4.327
			c1.966-3.507,7.679-2.848,10.249,0.244c2.57,3.092,2.877,7.42,3.068,11.436c2.06-1.54,5.271,0.307,5.887,2.804
			s-0.571,5.081-2.015,7.209c3.738-1.065,8.027,1.333,9.32,4.945c-0.311-1.994,0.673-4.191,2.479-5.139
			c2.145-1.126,5.098-0.316,6.369,1.747c0.156-3.647,5.878-4.674,8.347-1.986c2.469,2.688,2.177,6.932,0.925,10.36
			c1.982-3.056,7.326-1.568,8.689,1.81c1.362,3.377-0.121,7.243-2.16,10.261c4.053-1.038,8.416,3.289,7.413,7.35
			c3.412-3.293,10.314,0.738,9.121,5.327c1.036-3.314,6.03-3.796,8.653-1.521c2.623,2.275,3.316,6.05,3.394,9.521
			c1.177-2.506,5.241-2.086,6.909,0.124c1.668,2.21,1.623,5.228,1.469,7.992c3.496-1.568,7.774,3.048,5.946,6.416
			c4.415,1.813,7.327,6.745,6.781,11.487c-0.546,4.742-4.502,8.883-9.215,9.645H23.137C21.308,290.539,20.531,283.92,21.067,281.699
			z"/>
	</g>
</g>
<g id="Floor">
	<g id="Field_00000123437377978902794600000013361928066567269267_">
		<ellipse id="Grass_4_" style="fill:#BA68C8;" cx="249.7" cy="340.94" rx="240.586" ry="147.233"/>
		<ellipse id="Grass_1_" style="opacity:0.4;fill:#FFFFFF;" cx="249.7" cy="340.94" rx="240.586" ry="147.233"/>
		<g style="opacity:0.3;">
			<g>
				<path style="fill:#BA68C8;" d="M448.41,330.405c0.27-0.83,0.626-1.657,1.167-2.348c0.33-0.421,0.708-0.812,1.112-1.161
					c0.261-0.225,0.657-0.599,1.026-0.498c0.11,0.03,0.102,0.238,0.05,0.308c-0.245,0.325-0.605,0.541-0.824,0.891
					c-0.182,0.292-0.278,0.634-0.396,0.955c-0.31,0.85-0.614,1.714-0.787,2.604c-0.16,0.819-0.282,1.633-0.334,2.467
					c-0.026,0.413-0.057,0.814-0.105,1.226c-0.047,0.408-0.153,0.727-0.28,1.116c-0.042,0.127-0.257,0.351-0.399,0.198
					c-0.725-0.78-0.777-1.966-0.74-2.985C447.935,332.233,448.118,331.302,448.41,330.405z"/>
				<path style="fill:#BA68C8;" d="M445.375,317.784c1.756,2.165,1.769,5.303,1.789,7.974c0.012,1.606,0.008,3.219-0.052,4.824
					c-0.061,1.655,0.09,3.574-0.438,5.151c-0.06,0.18-0.429,0.545-0.553,0.207c-0.515-1.406-0.323-3.275-0.35-4.763
					c-0.028-1.582,0.012-3.164,0.01-4.747c-0.001-1.431-0.051-2.861-0.214-4.283c-0.154-1.341-0.459-2.656-0.624-3.993
					C444.925,317.993,445.197,317.565,445.375,317.784z"/>
				<path style="fill:#BA68C8;" d="M441.277,326.323c0.906,0.174,1.566,1.209,1.971,1.973c0.362,0.685,0.613,1.443,0.799,2.193
					c0.212,0.856,0.322,1.736,0.39,2.614c0.074,0.955,0.266,1.991-0.375,2.785c-0.074,0.092-0.288,0.212-0.405,0.114
					c-0.677-0.571-0.508-1.686-0.568-2.491c-0.066-0.888-0.18-1.771-0.371-2.641c-0.165-0.75-0.427-1.454-0.727-2.158
					c-0.29-0.679-0.784-1.311-0.905-2.048C441.067,326.556,441.108,326.291,441.277,326.323z"/>
			</g>
			<g>
				<path style="fill:#BA68C8;" d="M394.827,263.717c0.27-0.83,0.626-1.657,1.167-2.348c0.33-0.421,0.707-0.812,1.112-1.161
					c0.261-0.225,0.657-0.599,1.026-0.498c0.11,0.03,0.102,0.238,0.05,0.308c-0.245,0.325-0.605,0.541-0.824,0.891
					c-0.182,0.292-0.279,0.634-0.396,0.955c-0.31,0.85-0.614,1.714-0.788,2.604c-0.16,0.819-0.282,1.633-0.334,2.467
					c-0.026,0.413-0.057,0.814-0.105,1.226c-0.047,0.408-0.153,0.727-0.28,1.116c-0.042,0.128-0.257,0.351-0.399,0.198
					c-0.725-0.78-0.777-1.966-0.74-2.985C394.351,265.546,394.534,264.614,394.827,263.717z"/>
				<path style="fill:#BA68C8;" d="M391.791,251.097c1.756,2.165,1.769,5.303,1.789,7.974c0.012,1.606,0.008,3.219-0.052,4.824
					c-0.061,1.655,0.09,3.574-0.438,5.151c-0.06,0.18-0.429,0.545-0.553,0.207c-0.515-1.406-0.323-3.275-0.35-4.763
					c-0.028-1.582,0.012-3.164,0.01-4.747c-0.001-1.431-0.051-2.861-0.214-4.283c-0.154-1.341-0.459-2.656-0.624-3.993
					C391.341,251.306,391.613,250.877,391.791,251.097z"/>
				<path style="fill:#BA68C8;" d="M387.694,259.636c0.906,0.174,1.566,1.209,1.971,1.973c0.362,0.685,0.613,1.443,0.799,2.193
					c0.212,0.856,0.322,1.736,0.39,2.614c0.074,0.955,0.266,1.991-0.375,2.785c-0.074,0.092-0.288,0.212-0.405,0.114
					c-0.677-0.571-0.508-1.686-0.568-2.491c-0.066-0.888-0.18-1.771-0.371-2.641c-0.165-0.749-0.427-1.454-0.727-2.158
					c-0.29-0.679-0.784-1.311-0.905-2.048C387.483,259.868,387.524,259.603,387.694,259.636z"/>
			</g>
			<g>
				<path style="fill:#BA68C8;" d="M423.013,396.415c0.236-0.726,0.547-1.449,1.021-2.054c0.288-0.368,0.619-0.71,0.973-1.016
					c0.228-0.197,0.575-0.524,0.898-0.436c0.096,0.027,0.089,0.208,0.043,0.269c-0.215,0.285-0.529,0.473-0.72,0.78
					c-0.159,0.255-0.244,0.554-0.346,0.835c-0.271,0.744-0.537,1.5-0.689,2.278c-0.14,0.716-0.247,1.429-0.292,2.158
					c-0.022,0.362-0.05,0.712-0.091,1.072c-0.041,0.357-0.134,0.636-0.245,0.976c-0.037,0.112-0.225,0.307-0.349,0.174
					c-0.634-0.682-0.68-1.72-0.647-2.611C422.597,398.015,422.757,397.2,423.013,396.415z"/>
				<path style="fill:#BA68C8;" d="M420.357,385.375c1.536,1.894,1.547,4.639,1.566,6.976c0.011,1.405,0.007,2.816-0.046,4.22
					c-0.054,1.448,0.079,3.127-0.383,4.506c-0.053,0.157-0.375,0.477-0.483,0.182c-0.45-1.23-0.283-2.865-0.306-4.167
					c-0.025-1.384,0.01-2.768,0.009-4.152c-0.001-1.252-0.044-2.503-0.187-3.747c-0.135-1.173-0.401-2.323-0.546-3.493
					C419.964,385.558,420.202,385.183,420.357,385.375z"/>
				<path style="fill:#BA68C8;" d="M416.773,392.845c0.793,0.152,1.37,1.058,1.724,1.726c0.317,0.599,0.537,1.263,0.699,1.919
					c0.185,0.749,0.282,1.519,0.341,2.287c0.065,0.835,0.232,1.741-0.328,2.436c-0.065,0.081-0.252,0.186-0.354,0.1
					c-0.592-0.499-0.445-1.475-0.497-2.179c-0.058-0.777-0.157-1.549-0.325-2.31c-0.145-0.656-0.373-1.272-0.636-1.888
					c-0.254-0.594-0.686-1.147-0.792-1.792C416.589,393.048,416.625,392.816,416.773,392.845z"/>
			</g>
			<g>
				<path style="fill:#BA68C8;" d="M66.086,401.996c0.236-0.726,0.547-1.449,1.021-2.054c0.288-0.368,0.619-0.71,0.973-1.016
					c0.228-0.197,0.575-0.524,0.898-0.436c0.096,0.027,0.09,0.208,0.044,0.269c-0.215,0.285-0.529,0.473-0.72,0.78
					c-0.159,0.255-0.244,0.554-0.346,0.835c-0.271,0.744-0.537,1.5-0.689,2.278c-0.14,0.716-0.247,1.429-0.292,2.158
					c-0.022,0.362-0.05,0.712-0.091,1.072c-0.041,0.357-0.134,0.636-0.245,0.976c-0.037,0.112-0.225,0.307-0.349,0.174
					c-0.634-0.682-0.68-1.72-0.647-2.611C65.67,403.596,65.83,402.781,66.086,401.996z"/>
				<path style="fill:#BA68C8;" d="M63.43,390.956c1.536,1.894,1.547,4.639,1.565,6.976c0.011,1.405,0.007,2.816-0.045,4.22
					c-0.054,1.448,0.079,3.127-0.383,4.506c-0.053,0.157-0.375,0.477-0.483,0.182c-0.45-1.23-0.283-2.865-0.306-4.167
					c-0.025-1.384,0.01-2.768,0.009-4.152c-0.001-1.252-0.044-2.503-0.187-3.747c-0.135-1.173-0.401-2.323-0.546-3.493
					C63.037,391.138,63.275,390.763,63.43,390.956z"/>
				<path style="fill:#BA68C8;" d="M59.846,398.426c0.793,0.152,1.37,1.058,1.724,1.726c0.317,0.599,0.537,1.262,0.699,1.919
					c0.185,0.749,0.282,1.518,0.341,2.287c0.064,0.835,0.232,1.741-0.328,2.436c-0.065,0.081-0.252,0.186-0.354,0.1
					c-0.592-0.499-0.445-1.475-0.497-2.179c-0.058-0.777-0.157-1.549-0.325-2.31c-0.145-0.656-0.373-1.272-0.636-1.888
					c-0.254-0.594-0.686-1.147-0.792-1.792C59.661,398.629,59.697,398.397,59.846,398.426z"/>
			</g>
			<g>
				<path style="fill:#BA68C8;" d="M352.975,337.598c-0.247-0.759-0.572-1.515-1.067-2.147c-0.301-0.385-0.647-0.742-1.017-1.062
					c-0.239-0.206-0.601-0.548-0.938-0.455c-0.101,0.028-0.093,0.217-0.045,0.281c0.224,0.297,0.553,0.495,0.753,0.815
					c0.166,0.267,0.255,0.58,0.362,0.873c0.284,0.778,0.561,1.568,0.72,2.382c0.146,0.749,0.258,1.494,0.306,2.256
					c0.023,0.378,0.052,0.744,0.096,1.121c0.043,0.374,0.14,0.665,0.256,1.02c0.038,0.117,0.235,0.321,0.365,0.182
					c0.663-0.713,0.711-1.798,0.677-2.73C353.41,339.27,353.242,338.418,352.975,337.598z"/>
				<path style="fill:#BA68C8;" d="M355.751,326.056c-1.606,1.98-1.617,4.85-1.636,7.293c-0.011,1.469-0.007,2.944,0.048,4.412
					c0.056,1.513-0.082,3.268,0.4,4.711c0.055,0.164,0.392,0.499,0.505,0.19c0.471-1.286,0.296-2.995,0.32-4.356
					c0.026-1.447-0.011-2.893-0.009-4.341c0.001-1.309,0.047-2.616,0.195-3.917c0.141-1.226,0.42-2.429,0.571-3.652
					C356.163,326.247,355.914,325.855,355.751,326.056z"/>
				<path style="fill:#BA68C8;" d="M359.498,333.865c-0.829,0.159-1.432,1.106-1.802,1.804c-0.331,0.626-0.561,1.32-0.73,2.006
					c-0.193,0.783-0.294,1.587-0.356,2.391c-0.068,0.873-0.243,1.82,0.343,2.547c0.068,0.084,0.263,0.194,0.37,0.104
					c0.619-0.522,0.465-1.542,0.519-2.278c0.06-0.812,0.164-1.619,0.339-2.415c0.151-0.685,0.39-1.33,0.665-1.974
					c0.265-0.621,0.717-1.199,0.828-1.873C359.691,334.078,359.653,333.836,359.498,333.865z"/>
			</g>
			<g>
				<path style="fill:#BA68C8;" d="M146.046,239.016c0.236-0.724,0.546-1.445,1.018-2.049c0.288-0.367,0.617-0.708,0.971-1.013
					c0.228-0.196,0.573-0.523,0.895-0.434c0.096,0.026,0.089,0.207,0.043,0.268c-0.214,0.284-0.528,0.472-0.719,0.778
					c-0.159,0.255-0.243,0.553-0.345,0.833c-0.271,0.742-0.535,1.495-0.687,2.272c-0.139,0.715-0.246,1.425-0.291,2.153
					c-0.022,0.361-0.05,0.71-0.091,1.069c-0.041,0.356-0.134,0.634-0.245,0.974c-0.037,0.111-0.224,0.306-0.348,0.173
					c-0.633-0.68-0.678-1.716-0.646-2.604C145.631,240.611,145.791,239.798,146.046,239.016z"/>
				<path style="fill:#BA68C8;" d="M143.397,228.005c1.532,1.889,1.543,4.627,1.561,6.958c0.011,1.402,0.007,2.809-0.045,4.209
					c-0.053,1.444,0.079,3.118-0.382,4.494c-0.053,0.157-0.374,0.476-0.482,0.181c-0.449-1.227-0.282-2.857-0.305-4.156
					c-0.025-1.381,0.01-2.761,0.009-4.141c-0.001-1.249-0.044-2.496-0.187-3.738c-0.134-1.17-0.4-2.318-0.545-3.484
					C143.005,228.187,143.242,227.813,143.397,228.005z"/>
				<path style="fill:#BA68C8;" d="M139.822,235.455c0.791,0.152,1.367,1.055,1.719,1.721c0.316,0.597,0.535,1.259,0.697,1.914
					c0.185,0.747,0.281,1.515,0.34,2.281c0.064,0.833,0.232,1.737-0.327,2.43c-0.065,0.081-0.251,0.185-0.353,0.099
					c-0.591-0.498-0.443-1.471-0.495-2.173c-0.057-0.775-0.157-1.545-0.324-2.304c-0.144-0.654-0.372-1.268-0.635-1.883
					c-0.253-0.592-0.684-1.144-0.79-1.787C139.638,235.658,139.674,235.426,139.822,235.455z"/>
			</g>
			<g>
				<path style="fill:#BA68C8;" d="M321.901,277.576c0.236-0.724,0.546-1.446,1.018-2.049c0.288-0.367,0.617-0.708,0.971-1.013
					c0.228-0.196,0.573-0.523,0.895-0.434c0.096,0.026,0.089,0.207,0.043,0.268c-0.214,0.284-0.528,0.472-0.719,0.778
					c-0.159,0.255-0.243,0.553-0.345,0.833c-0.271,0.742-0.535,1.496-0.687,2.272c-0.139,0.714-0.246,1.425-0.291,2.152
					c-0.022,0.361-0.05,0.71-0.091,1.069c-0.041,0.357-0.134,0.634-0.245,0.974c-0.037,0.111-0.224,0.306-0.348,0.173
					c-0.632-0.68-0.678-1.716-0.646-2.604C321.487,279.172,321.646,278.359,321.901,277.576z"/>
				<path style="fill:#BA68C8;" d="M319.253,266.565c1.532,1.889,1.543,4.627,1.561,6.958c0.011,1.401,0.007,2.809-0.045,4.209
					c-0.053,1.444,0.079,3.118-0.382,4.495c-0.053,0.157-0.374,0.476-0.482,0.181c-0.449-1.227-0.282-2.857-0.305-4.156
					c-0.025-1.381,0.01-2.761,0.009-4.141c-0.001-1.249-0.044-2.496-0.187-3.737c-0.134-1.17-0.4-2.317-0.545-3.484
					C318.86,266.747,319.097,266.373,319.253,266.565z"/>
				<path style="fill:#BA68C8;" d="M315.677,274.015c0.791,0.152,1.367,1.055,1.719,1.721c0.316,0.597,0.535,1.259,0.697,1.914
					c0.185,0.747,0.281,1.515,0.34,2.281c0.064,0.833,0.232,1.737-0.328,2.43c-0.065,0.08-0.251,0.185-0.353,0.099
					c-0.591-0.498-0.443-1.471-0.495-2.173c-0.058-0.775-0.157-1.545-0.324-2.304c-0.144-0.654-0.372-1.269-0.634-1.883
					c-0.253-0.592-0.684-1.144-0.79-1.787C315.494,274.218,315.53,273.987,315.677,274.015z"/>
			</g>
			<g>
				<path style="fill:#BA68C8;" d="M156.755,447.777c0.247-0.759,0.572-1.515,1.067-2.147c0.301-0.385,0.647-0.742,1.017-1.062
					c0.239-0.206,0.601-0.548,0.938-0.455c0.101,0.028,0.094,0.217,0.045,0.281c-0.224,0.297-0.553,0.495-0.753,0.815
					c-0.166,0.267-0.255,0.58-0.362,0.873c-0.284,0.778-0.561,1.568-0.72,2.382c-0.146,0.749-0.258,1.494-0.306,2.256
					c-0.023,0.378-0.052,0.744-0.096,1.121c-0.043,0.374-0.14,0.665-0.256,1.02c-0.038,0.117-0.235,0.321-0.365,0.181
					c-0.663-0.713-0.711-1.798-0.677-2.73C156.32,449.45,156.488,448.598,156.755,447.777z"/>
				<path style="fill:#BA68C8;" d="M153.979,436.236c1.606,1.98,1.617,4.85,1.636,7.293c0.011,1.469,0.007,2.944-0.048,4.412
					c-0.056,1.513,0.082,3.268-0.4,4.711c-0.055,0.164-0.392,0.499-0.505,0.19c-0.471-1.286-0.296-2.995-0.32-4.356
					c-0.026-1.447,0.011-2.893,0.009-4.341c-0.001-1.309-0.046-2.616-0.195-3.917c-0.141-1.226-0.42-2.429-0.571-3.652
					C153.568,436.427,153.816,436.035,153.979,436.236z"/>
				<path style="fill:#BA68C8;" d="M150.232,444.045c0.829,0.159,1.432,1.106,1.802,1.804c0.331,0.626,0.561,1.32,0.73,2.006
					c0.193,0.783,0.294,1.587,0.356,2.391c0.068,0.873,0.243,1.82-0.343,2.547c-0.068,0.084-0.264,0.194-0.37,0.104
					c-0.619-0.522-0.465-1.542-0.519-2.278c-0.06-0.812-0.164-1.619-0.339-2.415c-0.151-0.686-0.39-1.33-0.665-1.973
					c-0.265-0.621-0.717-1.199-0.828-1.873C150.04,444.258,150.077,444.015,150.232,444.045z"/>
			</g>
		</g>
	</g>
	<g id="Road">
		<path style="fill:#FAFAFA;" d="M419.819,445.05c8.495-5.198,16.21-10.693,23.168-16.422L95.43,227.965
			c-5.44,2.789-10.736,5.737-15.849,8.866C32.254,265.793,8.778,303.82,9.129,341.779l253.201,146.186
			C319.626,486.133,376.056,471.832,419.819,445.05z"/>
		<g>
			<polygon style="fill:#EBEBEB;" points="167.248,269.43 25.532,351.25 20.735,348.48 162.451,266.66 			"/>
			<polygon style="fill:#EBEBEB;" points="274.027,331.078 132.311,412.898 127.514,410.129 269.23,328.309 			"/>
			<polygon style="fill:#EBEBEB;" points="380.806,392.727 239.09,474.547 234.293,471.778 376.009,389.958 			"/>
		</g>
	</g>
</g>
<g id="Clouds">
	<path id="Cloud_00000111189385053865235990000003066588459103825809_" style="fill:#F5F5F5;" d="M171.471,40.973
		c0.01-3.512,3.852-5.953,8.211-6.364c5.136-0.484,8.78,1.805,8.902,5.85c3.359-1.379,6.9-0.494,6.634,3.198
		c0.873-1.007,4.143-0.979,5.316-0.698c1.24,0.297,2.497,1.414,2.926,2.493c0.347,0.873,0.365,1.277,0.304,1.89
		c1.958-0.642,6.411-1.034,7.525,0.762c1.982,3.197-5.937,3.298-7.535,2.331c-0.338,2.488-8.85,2.896-10.91,0.6
		c-1.61,1.622-3.922,1.98-6.418,2.128c-4.211,0.25-6.793-1.176-10.078-2.854c-3.571,3.028-9.751,3.083-12.969-0.381
		c-0.821,0.775-3.083,1.015-4.895,0.582c-1.189-0.284-1.464-0.791-1.464-0.791c-0.637,0.295-1.397,0.491-2.185,0.656
		c-2.335,0.489-6.679-0.027-4.856-2.13c0.62-0.716,2.893-1.17,3.857-0.948c1.019-2.004,5.107-3.902,7.452-2.208
		c0.091-2.427,2.31-4.325,5.432-4.807C167.766,40.123,170.277,39.982,171.471,40.973z"/>
	<path id="Cloud_9_" style="fill:#F5F5F5;" d="M374.114,45.735c0.011-3.883,4.258-6.581,9.077-7.035
		c5.678-0.535,9.706,1.996,9.841,6.467c3.713-1.524,7.628-0.546,7.334,3.536c0.966-1.113,4.58-1.082,5.876-0.771
		c1.371,0.328,2.76,1.563,3.234,2.756c0.384,0.965,0.404,1.412,0.336,2.089c2.165-0.709,7.087-1.143,8.319,0.842
		c2.191,3.535-6.564,3.645-8.33,2.577c-0.374,2.75-9.783,3.201-12.061,0.664c-1.78,1.793-4.336,2.188-7.095,2.353
		c-4.655,0.277-7.51-1.3-11.141-3.155c-3.948,3.347-10.779,3.409-14.337-0.421c-0.908,0.856-3.408,1.122-5.411,0.643
		c-1.315-0.314-1.619-0.874-1.619-0.874c-0.704,0.326-1.544,0.543-2.415,0.726c-2.581,0.541-7.383-0.03-5.368-2.355
		c0.686-0.791,3.199-1.293,4.263-1.048c1.126-2.215,5.645-4.313,8.238-2.44c0.1-2.683,2.553-4.781,6.005-5.315
		C370.017,44.795,372.794,44.64,374.114,45.735z"/>
	<path id="Cloud_00000106827369446370060830000009080448628828057265_" style="fill:#F5F5F5;" d="M427.533,80.115
		c0.011-3.66,4.013-6.203,8.555-6.631c5.351-0.504,9.148,1.881,9.275,6.095c3.5-1.437,7.189-0.515,6.912,3.332
		c0.91-1.049,4.316-1.02,5.539-0.727c1.292,0.31,2.601,1.473,3.048,2.598c0.361,0.91,0.38,1.331,0.317,1.969
		c2.041-0.668,6.68-1.077,7.84,0.794c2.065,3.331-6.186,3.436-7.851,2.429c-0.352,2.592-9.221,3.017-11.367,0.626
		c-1.678,1.69-4.087,2.063-6.687,2.217c-4.387,0.261-7.078-1.225-10.501-2.973c-3.721,3.155-10.159,3.213-13.512-0.396
		c-0.856,0.807-3.212,1.057-5.1,0.606c-1.239-0.296-1.526-0.824-1.526-0.824c-0.664,0.307-1.455,0.512-2.276,0.684
		c-2.433,0.51-6.959-0.028-5.06-2.219c0.646-0.746,3.015-1.219,4.018-0.988c1.061-2.088,5.321-4.065,7.765-2.3
		c0.094-2.529,2.406-4.506,5.66-5.009C423.672,79.229,426.289,79.082,427.533,80.115z"/>
</g>
<g id="Sun">
	
		<ellipse id="Sun_1_" transform="matrix(0.1222 -0.9925 0.9925 0.1222 18.5845 140.9665)" style="fill:#FFBDA7;" cx="88.985" cy="59.977" rx="21.27" ry="21.27"/>
</g>
<g id="Shadow">
	<path id="Shadow_8_" style="fill:#E0E0E0;" d="M164.985,389.506c10.733,3.789,21.008,8.874,30.532,15.108
		c10.704,7.007,20.495,15.478,31.891,21.291c14.81,7.554,31.795,10.263,48.4,9.445c9.406-0.463,19.629-2.498,25.62-9.763
		c1.534-1.86,2.754-4.116,2.777-6.527c0.033-3.54-2.456-6.571-5.029-9.003c-13.727-12.975-32.837-18.283-51.265-22.427
		c-18.428-4.144-29.488-9.348-47.598-18.727c-7.751-4.014-15.391-8.33-23.2-12.114c-0.063-0.031-0.126-0.061-0.19-0.092
		c-3.965-1.911-7.689-4.025-11.867-5.514c-6.665-2.375-13.488-4.45-20.52-5.236c-7.031-0.786-14.321-0.231-20.848,2.499
		c-1.68,0.703-3.375,1.61-4.377,3.131c-0.847,1.287-1.103,2.886-1.05,4.426c0.107,3.138,1.41,6.151,3.261,8.687
		c1.851,2.536,4.231,4.637,6.703,6.573C139.005,379.702,152.169,384.981,164.985,389.506z"/>
</g>
<g id="Character">
	<g id="Character_00000026853732689420913960000011750466307768061833_">
		<g id="Bottom_00000070109254348597376230000001936402002764287110_">
			<g>
				<path style="fill:#B16668;" d="M130.744,321.977c-0.054-1.109,0.043-2.218,0.339-3.311c0.735-2.714,1.984-5.959,3.901-7.994
					c2.179-2.314,4.585-4.496,6.35-7.161c1.902-2.87,3.348-5.685,4.499-8.949c0.888-2.518,1.443-5.421,2.953-7.666
					c4.579-6.81,12.611-4.105,17.466-3.803l19.59-8.095l0.919,23.918c0,0-9.849,1.159-12.815,1.922
					c-3.927,1.01-8.219,4.673-11.075,7.335c-3.628,3.382-7.943,6.776-9.163,11.791c-0.662,2.724-0.668,5.556-0.745,8.358
					c-0.022,0.797-0.053,1.609-0.319,2.361c-0.733,2.074-2.98,3.129-5.013,3.967c-3.294,1.358-7.18,2.689-10.253,0.884
					c-1.75-1.028-2.829-2.879-3.761-4.682C132.185,328.084,130.893,325.028,130.744,321.977z"/>
				<g>
					<path style="fill:#263238;" d="M147.331,340.975c0,0-2.809,0.641-6.686-1.116c-3.198-1.449-5.465-3.581-5.465-3.581
						c-5.135-4.447-7.952-10.882-7.373-15.777c0.532-4.492,5.999-12.95,7.504-15.337c1.832-2.906,2.895-7.645,3.106-10.51
						c0.124-1.687,2.305-11.449,3.355-12.35l6.976-0.273c0,0-3.608,4.594-4.034,7.961c-0.426,3.367-3.976,17.583-6.012,21.043
						c-2.037,3.46-2.771,10.373-0.674,15.427c2.097,5.054,12.489,11.89,12.489,11.89L147.331,340.975z"/>
					<path style="fill:#37474F;" d="M153.888,321.482l-4.208-5.824c0,0,2.526-13.736,5.43-18.665
						c2.904-4.929,5.251-4.889,5.692-3.439c1.39,4.574,8.257,9.42,9.934,8.603c0.636,2.028-2.145,1.458-5.326,4.672
						C162.419,309.851,156.726,314.266,153.888,321.482z"/>
					<path style="fill:#455A64;" d="M139.555,301.811c-0.731,2.388-2.017,4.654-3.401,6.725c-3.402,5.093-6.251,11.37-4.548,17.62
						c0.684,2.512,2.215,4.732,4.061,6.568c1.846,1.836,4.006,3.323,6.181,4.754c1.989,1.308,6.008,2.23,6.663,2.016
						c2.012-0.855,3.981-2.449,4.477-4.679c0.81-3.644,0.774-7.448,1.554-11.096c0.39-1.825,0.541-3.761,1.407-5.444
						c0.952-1.85,2.359-3.413,3.663-5.017c1.818-2.236,3.727-4.425,5.8-6.43c-2.358,2.28-9.504,8.16-11.334,12.434l-3.035-4.093
						c0,0,1.537-7.798,2.754-10.966c1.335-3.474,2.357-5.257,3.633-7.022c0.786-1.088,1.248-2.362,0.97-3.702
						c-0.264-1.271-1.224-2.287-1.594-3.552c-0.322-1.098-0.318-2.344,0.269-3.326c0.667-1.114,1.94-1.696,3.161-2.139
						c1.775-0.643,4.157-1.045,6.017-1.369c0.164-0.78-0.285-1.138-0.702-1.215c-0.922-0.168-1.856-0.258-2.788-0.347
						c-2.098-0.2-4.196-0.402-6.294-0.601c-1.982-0.188-3.821-0.164-5.83-0.056c-0.907,0.049-1.833,0.102-2.675,0.443
						c-1.334,0.541-2.285,1.733-3.061,2.945c-1.733,2.707-2.892,5.739-3.666,8.849C140.518,295.988,140.416,299,139.555,301.811z"/>
					<g>
						<path style="fill:#BA68C8;" d="M151.244,280.953c0.499,1.462-1.558,5.07-4.025,6.836c-2.467,1.767-7.815,4.129-8.803,6.865
							c-0.432-4.438,0.866-8.887,2.084-11.488c0.717-1.532,1.894-1.915,3.196-2.383
							C144.999,280.316,151.087,280.205,151.244,280.953z"/>
					</g>
					<g>
						<path style="fill:#BA68C8;" d="M147.393,340.853c1.468-1.74,2.301-3.616,1.083-4.272c-1.219-0.656-7.408-3.169-9.223-2.928
							c-1.815,0.241-4.125,2.79-4.125,2.79s2.137,2.392,6.02,4.003C145.078,342.079,147.393,340.853,147.393,340.853z"/>
					</g>
					<path style="fill:#BA68C8;" d="M155.542,293.493c-0.41,0.269-0.523,0.819-0.255,1.229c0.269,0.41,0.819,0.524,1.229,0.255
						c0.41-0.269,0.524-0.819,0.255-1.229C156.502,293.338,155.952,293.224,155.542,293.493z"/>
					<g>
						<path style="fill:#BA68C8;" d="M150.161,311.819c0.382-0.025,0.67,0.198,0.981,0.398c0.311,0.2,0.613,0.416,0.903,0.645
							c0.565,0.447,1.082,0.959,1.547,1.508c0.461,0.544,0.882,1.134,1.235,1.754c0.354,0.623,0.781,1.397,0.835,2.123
							c0.018,0.249-0.451,0.228-0.543,0.067c-0.363-0.633-0.622-1.319-0.993-1.951c-0.34-0.579-0.724-1.124-1.163-1.633
							c-0.419-0.486-0.88-0.932-1.372-1.343c-0.239-0.2-0.487-0.39-0.743-0.568c-0.291-0.203-0.61-0.365-0.85-0.63
							C149.872,312.049,149.979,311.831,150.161,311.819z"/>
						<path style="fill:#BA68C8;" d="M150.216,311.762c0.626-0.17,1.401-0.098,2.063-0.022c0.725,0.083,1.448,0.24,2.158,0.483
							c0.712,0.243,1.395,0.563,2.059,0.956c0.343,0.203,0.67,0.431,0.987,0.681c0.306,0.242,0.652,0.508,0.86,0.854
							c0.085,0.141-0.178,0.223-0.267,0.172c-0.63-0.361-1.209-0.829-1.841-1.193c-0.614-0.353-1.268-0.643-1.925-0.859
							c-0.614-0.202-1.243-0.35-1.869-0.421c-0.315-0.036-0.63-0.055-0.943-0.057c-0.322-0.003-0.644,0.049-0.965,0.033
							c-0.172-0.009-0.361-0.087-0.448-0.267C150.01,311.967,150.061,311.803,150.216,311.762z"/>
						<path style="fill:#BA68C8;" d="M152.441,307.801c2.04,2.896,3.332,6.848,3.287,9.929c-0.005,0.321-0.592,0.332-0.59,0.047
							c0.024-3.195-1.389-6.795-3.283-9.764C151.618,307.641,152.245,307.522,152.441,307.801z"/>
						<path style="fill:#BA68C8;" d="M151.963,307.785c0.735-0.136,1.614,0.017,2.365,0.164c0.822,0.161,1.632,0.406,2.419,0.747
							c0.79,0.342,1.538,0.767,2.256,1.275c0.371,0.262,0.722,0.551,1.058,0.865c0.325,0.303,0.692,0.637,0.894,1.05
							c0.082,0.168-0.228,0.237-0.324,0.171c-0.683-0.468-1.297-1.053-1.982-1.525c-0.665-0.458-1.384-0.847-2.113-1.153
							c-0.681-0.286-1.386-0.512-2.096-0.65c-0.357-0.07-0.715-0.12-1.073-0.151c-0.368-0.033-0.742-0.004-1.109-0.051
							c-0.196-0.025-0.404-0.132-0.485-0.345C151.704,308,151.781,307.818,151.963,307.785z"/>
						<path style="fill:#BA68C8;" d="M153.658,304.121c0.9-0.14,1.94,0.05,2.826,0.232c0.97,0.198,1.917,0.491,2.824,0.891
							c0.91,0.402,1.761,0.898,2.566,1.487c0.416,0.304,0.805,0.637,1.172,0.999c0.355,0.35,0.759,0.734,0.953,1.205
							c0.079,0.191-0.302,0.264-0.41,0.188c-0.767-0.543-1.437-1.217-2.206-1.763c-0.747-0.531-1.566-0.985-2.407-1.345
							c-0.786-0.337-1.608-0.606-2.446-0.776c-0.421-0.086-0.846-0.149-1.274-0.192c-0.439-0.044-0.893-0.018-1.328-0.08
							c-0.233-0.033-0.471-0.158-0.543-0.399C153.322,304.359,153.436,304.155,153.658,304.121z"/>
						<path style="fill:#BA68C8;" d="M154.14,304.881c2.329,2.669,3.408,6.175,4.299,9.535c0.082,0.311-0.496,0.38-0.582,0.108
							c-1.05-3.309-2.085-6.614-4.277-9.371C153.305,304.807,153.915,304.623,154.14,304.881z"/>
						<path style="fill:#BA68C8;" d="M155.523,300.29c2.839,3.351,5.296,7.984,5.735,11.461c0.047,0.369-0.56,0.378-0.626,0.049
							c-0.868-4.308-2.997-7.837-5.694-11.27C154.6,300.099,155.249,299.966,155.523,300.29z"/>
					</g>
				</g>
				<path style="fill:#37474F;" d="M262.062,206.045c0,0,2.533,40.009-5.11,66.933c-4.76,16.767-23.61,18.352-27.638,19.221
					c-17.869,3.851-51.013,7.846-51.013,7.846s-8.733-10.396-4.157-20.213c14.864-7.641,31.82-19.327,44.914-18.877l23.738-56.781
					L262.062,206.045z"/>
				<path style="fill:#263238;" d="M250.419,239.549c0,0,7.619-5.153,8.593-17.819l-26.524,7.104l0,0l-13.429,32.121
					c-0.002,0-0.003,0-0.005,0c-0.541-0.018-1.09-0.009-1.643,0.013c-0.137,0.005-0.274,0.012-0.411,0.02
					c-0.549,0.031-1.101,0.074-1.661,0.142c-0.005,0.001-0.011,0.001-0.016,0.002c-0.584,0.071-1.176,0.165-1.772,0.273
					c-0.116,0.021-0.232,0.043-0.349,0.065c-0.588,0.113-1.179,0.237-1.777,0.383c-3.118,0.76-6.367,1.953-9.685,3.412
					l16.583,29.026c0.004-0.001,0.007-0.001,0.011-0.001c0.927-0.16,1.84-0.321,2.74-0.483c0.105-0.019,0.211-0.038,0.316-0.057
					c0.913-0.165,1.812-0.331,2.689-0.497c0.022-0.004,0.043-0.008,0.066-0.013c0.795-0.151,1.567-0.302,2.326-0.454
					c0.191-0.038,0.382-0.076,0.57-0.115c0.777-0.157,1.539-0.315,2.268-0.471c0.002,0,0.004-0.001,0.006-0.001
					c4.028-0.868,22.878-2.454,27.638-19.221c0.536-1.888,1.02-3.842,1.46-5.84L250.419,239.549z"/>
			</g>
			<g>
				<path style="fill:#B16668;" d="M274.416,376.335c-1.621,0.112-1.699-2.011-2.38-7.005c-0.749-5.49-3.636-26.979-3.636-26.979
					l-25.888,10.213c0,0,6.715,17.691,8.826,22.793c2.345,5.668,5.625,13.445,6.16,17.858c0.535,4.413,0.781,16.724,6.315,18.931
					c5.535,2.207,10.67-0.313,14.327-2.706c3.656-2.392,7.879-10.741,11.923-14.969c4.044-4.229,7.452-6.578,10.573-10.948
					c3.121-4.369,2.887-15.186-1.336-17.433c-4.223-2.247-10.224,0.323-13.757,2.443C282.01,370.654,277.42,376.128,274.416,376.335
					z"/>
				<path style="fill:#37474F;" d="M205.559,195.315c-9.348,10.776-13.623,20.063-14.047,29.496
					c-0.452,10.07,2.938,19.36,6.936,26.828c7.743,14.464,14.004,23.083,31.173,55.9c0.042,7.367,0.192,14.703,5.58,28.524
					c6.697,17.18,14.674,35.643,14.674,35.643s5.98-10.825,21.179-9.225c-0.795-8.465-5.852-48.765-8.322-60.676
					c-3.075-14.827-16.295-63.625-16.295-63.625s15.4-10.013,15.625-32.135L205.559,195.315z"/>
				<path style="fill:#BA68C8;" d="M245.982,329.845c-6.025-18.421-3.428-23.277-6.063-29.914
					c-2.635-6.637-20.97-39.107-24.58-48.074c-3.44-8.543-12.379-27.507,1.049-48.065l-5.713-3.185
					c-14.433,21.288-10.195,39.419-1.875,55.623c8.783,17.107,21.616,41.784,24.172,46.303c2.555,4.52-0.508,11.683,5.513,29.57
					c2.827,8.399,9.548,27.297,13.3,37.074c1.402-1.541,3.613-3.479,6.764-4.902C254.411,353.454,247.626,334.869,245.982,329.845z"
					/>
				<g>
					<g>
						<g>
							<path style="fill:#455A64;" d="M299.897,365.552c-2.467-2.348-6.395-2.309-11.609,0.289
								c-6.225,3.102-9.255,6.719-9.258,6.722c-0.801,0.954-1.591,1.673-2.94,1.237c-0.441-0.143-0.832-0.405-1.245-0.616
								c-2.917-1.484-6.445-0.213-9.346,1.302c-0.295,0.154-0.601,0.322-0.777,0.604c-0.504,0.807,0.359,1.766,1.151,2.294
								c0.785,0.523,1.43,1.164,2.002,1.922c-0.735-0.18-1.47-0.36-2.205-0.54c-0.447-0.109-0.913-0.219-1.363-0.123
								c-0.811,0.172-1.335,0.946-1.718,1.681c-0.506,0.97-0.921,1.987-1.238,3.034c-0.302,0.995-0.548,2.075-1.298,2.795
								c-0.723,0.692-1.847,0.909-2.794,0.587c-0.947-0.323-1.933-1.151-2.209-2.113c-0.069,0.073-0.137,0.139-0.226,0.573
								c-0.059,0.288-0.049,0.557,0.019,0.835c0.191,0.784,0.726,1.435,0.987,2.193c0.792,2.297,1.053,4.828,1.263,7.232
								c0.564,6.462,1.314,9.99,2.493,13.255l27.176-26.267l-1.799-2.3C291.03,376.452,299.897,365.552,299.897,365.552z"/>
							<path style="fill:#37474F;" d="M303.66,370.086c-0.397-1.827-1.088-2.951-1.989-3.533c-0.345-0.223-1.543-0.851-1.774-1.002
								c-3.066-1.991-8.567,2.291-13.203,6.495c-5.4,4.897-10.392,14.728-14.761,21.385c-4.369,6.657-9.793,9.217-11.584,12.151
								c-1.271,2.082-0.931,4.375,0.518,5.958c0.279,0.304,1.305,1.261,1.51,1.457c1.433,1.374,3.972,1.931,6.972,1.355
								c6.053-1.164,10.404-3.087,15.41-10.215c5.006-7.128,7.648-10.822,13.49-15.398
								C304.091,384.164,304.908,375.827,303.66,370.086z"/>
							<path style="fill:#263238;" d="M303.66,370.086c-1.749-8.045-9.195-2.466-15.192,2.971
								c-5.4,4.897-10.392,14.728-14.761,21.385c-4.369,6.657-9.925,9.14-11.584,12.151c-3.016,5.476,1.171,8.923,7.224,7.76
								c6.053-1.164,10.404-3.087,15.41-10.215c5.006-7.128,7.648-10.822,13.49-15.398
								C304.091,384.164,304.908,375.827,303.66,370.086z"/>
						</g>
					</g>
					<g>
						<path style="fill:#BA68C8;" d="M262.506,413.122c-3.878-1.595-4.64-10.737-4.919-13.076c-0.279-2.338,1.726-4.39,5.365-3.078
							c3.639,1.313,8.103,0.924,8.103,0.924s-2.037,2.594-5.321,5.333C263.329,405.233,259.562,410.201,262.506,413.122z"/>
						<path style="fill:#BA68C8;" d="M290.964,370.877c1.226-1.487-0.486-3.514-0.531-4.596c-0.045-1.081,1.036-2.208,4.055-2.568
							c3.019-0.361,3.926-0.27,5.41,0.721c1.484,0.991,2.581,2.862,2.581,2.862s-1.336-1.248-3.71-0.879
							C294.662,367.054,290.964,370.877,290.964,370.877z"/>
						<path style="fill:#BA68C8;" d="M266.264,381.852c0,0.664-0.538,1.202-1.202,1.202c-0.664,0-1.202-0.538-1.202-1.202
							c0-0.664,0.538-1.202,1.202-1.202C265.726,380.65,266.264,381.188,266.264,381.852z"/>
					</g>
				</g>
			</g>
		</g>
		<g id="Top_00000041974091634697226080000002744984847007537047_">
			<g>
				<path style="fill:#B16668;" d="M346.334,160.83c0.242-0.871,0.001-1.632,0.263-2.465c0.262-0.833,0.828-1.476,1.029-2.338
					c0.297-1.305-0.34-1.943-1.192-3.218c-0.334-0.505-0.601-1.072-0.585-1.683c0.017-0.611,0.309-1.111,0.443-1.714
					c0.379-1.697-0.133-3.674-1.915-5.144c0.296-1.84,0.454-2.75,0.773-4.56c0.05-0.305,0.027-0.653-0.125-0.847
					c-0.152-0.194-0.316-0.205-0.487-0.22c-0.921-0.097-1.687,0.095-2.463,0.648c-1.49,1.07-2.053,2.005-2.985,3.741
					c-0.932,1.736-4.086,6.551-5.252,8.046c-0.524,0.673-3.802,5.384-4.663,2.591c-0.162-0.526,0.016-1.088,0.164-1.618
					c0.456-1.628,0.636-3.333,0.53-5.021c-0.043-0.681-0.137-1.375-0.445-1.983c-0.364-0.719-1.423-1.655-2.279-1.118
					c-0.722,0.454-1.108,2.263-1.438,3.016c-1.013,2.311-2.092,4.596-3.385,6.766c-1.579,2.65-2.093,3.759-2.948,6.366
					c-0.191,0.574-0.478,1.257-0.845,1.978c-0.703,1.094-1.763,3.254-5.794,5.574c-3.843,2.212-19.694,11.118-19.694,11.118
					s-1.842-3.133-9.181-19.374c-5.216-11.543-12.805-27.584-23.78-27.584c0,0-0.911,19.604-1.374,33.184
					c5.829,10.171,15.129,26.627,19.879,32.791c5.556,7.209,9.506,10.002,15.427,7.027c10.379-5.215,19.333-15.179,25.736-20.809
					c4.642-4.185,9.503-7.368,12.038-8.844c2.54-1.465,5.427-3.349,7.444-5.098C341.255,168.292,345.638,163.298,346.334,160.83z"/>
				<g>
					<path style="fill:#9A4A4D;" d="M331.163,161.939c0.187-0.702,0.319-1.422,0.382-2.145c0.057-0.659,0.143-1.398-0.082-2.031
						c-0.075-0.209-0.448-0.474-0.575-0.154c-0.242,0.608-0.216,1.315-0.321,1.958c-0.102,0.619-0.221,1.233-0.385,1.839
						c-0.33,1.214-0.823,2.388-1.484,3.459c-0.637,1.033-1.453,1.938-2.404,2.691c-0.885,0.701-1.878,1.218-2.857,1.77
						c-0.086,0.048-0.128,0.333,0.015,0.326c2.493-0.113,4.709-2.105,6.057-4.062C330.27,164.482,330.816,163.237,331.163,161.939z"
						/>
					<path style="fill:#9A4A4D;" d="M293.041,178.746c-5.5,3.172-7.808,8.689-7.808,8.689s-0.04-3.175,2.66-6.535
						c2.7-3.36,4.146-4.066,4.146-4.066L293.041,178.746z"/>
				</g>
				<path style="fill:#37474F;" d="M315.681,165.564c-0.637-0.811-4.739,1.253-5.021,2.33c-0.282,1.078-1.338,3.554,2.721,9.834
					c4.059,6.279,6.534,6.315,7.713,5.738c1.178-0.577,3.874-2.929,4.142-3.256c0.268-0.327,0.053-0.746,0.053-0.746l-1.061,0.724
					c0,0-3.405-1.411-6.336-6.008c-2.931-4.597-3.049-7.937-3.049-7.937L315.681,165.564z"/>
			</g>
			<g>
				<path style="fill:#B16668;" d="M207.509,185.042c0.306,3.367,0.848,6.882-1.95,10.272c2.338,9.15,22.271,14.471,35.366,14.626
					c17.999,0.213,21.138-3.895,21.138-3.895l1.09-11.411L207.509,185.042z"/>
				<g id="XMLID_6568_">
					<g>
						<path style="fill:#F0F0F0;" d="M276.645,161.475c-4.742-15.855-16.566-29.687-16.566-29.687
							c-2.772-0.501-24.09-3.839-24.09-3.839s-11.665,0.92-19.066,2.033c-3.804,2.286-6.762,5.862-9.923,12.527
							c-1.343,2.832-4.079,13.658-3.366,18.22c1.497,9.588,4.034,26.886,4.034,26.886c8.909,14.633,46.411,15.374,55.241,9.388
							l1.784-13.039C276.346,180.725,278.962,169.224,276.645,161.475z"/>
						<path style="fill:#E0E0E0;" d="M248.383,181.531c0,0-8.981,4.943-18.706-0.035c-9.507-4.866-10.085-13.893-8.934-17.261
							c0,0-5.498,13.433,6.314,19.637C241.844,191.638,248.383,181.531,248.383,181.531z"/>
					</g>
				</g>
			</g>
			<path style="fill:#263238;" d="M221.84,70.449c-3.546,0.242-6.664,3.132-7.443,6.6c-1.954-1.445-4.587-2.216-6.857-1.348
				c-2.27,0.868-3.768,3.739-2.635,5.89c-1.7-0.098-3.123-1.823-2.897-3.511c-0.947,1.311-1.561,2.951-1.288,4.545
				c0.273,1.594,1.61,3.055,3.227,3.112c-1.725-0.091-3.308,1.086-4.248,2.536c-1.216,1.875-1.562,4.393-0.531,6.375
				c1.031,1.983,3.576,3.163,5.653,2.336c-1.659,1.355-2.126,3.962-1.042,5.809s3.588,2.71,5.58,1.922
				c-0.74,2.119,1.145,4.688,3.388,4.619c-1.516-0.9-1.625-3.433-0.192-4.459c-0.269,1.381,0.712,2.761,1.957,3.415
				c1.245,0.654,2.699,0.748,4.103,0.829c1.734,0.1,3.548,0.186,5.13-0.531c2.538-1.149,3.771-3.989,4.783-6.585l1.044-25.655
				C228.984,72.842,225.386,70.207,221.84,70.449z"/>
			<g>
				<path style="fill:#BA68C8;" d="M223.481,81.146c-5.537,1.989-6.689,11.942-1.028,17.154
					C228.115,103.511,231.89,77.564,223.481,81.146z"/>
			</g>
			<g id="Head_6_">
				<g>
					<path style="fill:#263238;" d="M277.121,81.328c0.061-6.747-7.362-8.179-9.377-8.25c-2.752-0.097-5.687-2.025-7.163-4.396
						c-1.629-2.616-5.243-4.486-8.737-4.126c-5.517,0.569-4.63,2.979-9.352,3.805c-4.208,0.736-6.978-1.034-11.156,1.88
						c-2.51,1.75-4.046,5.19-4.044,8.279c-2.994,1.268-8.197,10.76-4.283,22.658c2.012,6.115,5.069,9.295,8.667,14.657l4.178,0.65
						c1.911-3.337,5.361-2.125,8.747-2.436c2.221-0.617,3.764-2.763,5.984-3.381c2.256-0.628,4.624,0.462,6.965,0.411
						c1.817-0.039,3.769-0.819,5.538-0.071c3.938,2.348,10.813-0.334,11.081-5.248c0.066-1.492-0.523-3.04-0.018-4.445
						c0.661-1.842,2.845-2.579,4.173-4.016c1.491-1.613,1.857-4.293,0.624-6.111C276.434,87.479,277.087,85.165,277.121,81.328z"/>
				</g>
				<path style="fill:#B16668;" d="M230.739,123.698c0.246-2.2,1.057-12.539,1.057-12.539c-0.177,0.813-5.093,2.599-8.237-2.021
					c-3.228-4.743-2.041-8.874,0.407-11.534c2.705-2.941,7.966-2.222,9.538,3.2c1.591,0.188,4.155,0.162,4.261-8.134
					c1.138-9.901,11.636-17.036,18.974-9.287c3.755-5.204,10.203-2.267,12.078,3.395c0.988,3.526,1.312,4.736-0.062,11.059
					c-0.231,1.063,0.832,3.498,0.185,8.279c-1.602,11.839-5.105,15.038-8.869,17.037c-2.242,1.191-4.666,1.665-9.018,0.848
					l-0.262,2.871l0,0c-0.107,1.852-0.363,2.277,1.292,3.094c1.144,0.564,3.579,1.053,3.579,1.053s7.335,14.673-9.083,14.964
					c-15.828,0.28-21.601-17.003-21.601-17.003s1.017-0.116,2.912-0.573C229.786,127.948,230.493,125.897,230.739,123.698z"/>
				<path style="fill:#FAFAFA;" d="M230.539,103.448c-0.027,0.796-0.475,1.548-1.15,1.97c-0.414,0.259-0.837,0.365-1.248,0.389
					c-0.266,0.015-0.195,0.42-0.012,1.665l0.114,0.796c0.098,0.422-0.165,0.842-0.587,0.94l0,0c-0.422,0.098-0.843-0.165-0.94-0.587
					l-1.059-4.586c-0.318-1.372,0.472-2.839,1.846-3.147C229.054,100.541,230.598,101.726,230.539,103.448z"/>
				<g>
					<g id="XMLID_355_">
						<path id="XMLID_356_" style="fill:#9A4A4D;" d="M248,109.42l5.958,2.599c-0.693,1.71-2.588,2.515-4.233,1.798
							C248.079,113.099,247.307,111.131,248,109.42z"/>
						<path style="fill:#F28F8F;" d="M248.245,110.884c1.729,0.135,3.073,1.479,3.271,3.138c-0.585,0.104-1.203,0.05-1.791-0.206
							c-1.181-0.515-1.901-1.675-1.963-2.921C247.921,110.886,248.081,110.872,248.245,110.884z"/>
					</g>
					<path id="XMLID_354_" style="fill:#263238;" d="M267.151,93.831l-4.153-2.776c0.729-1.185,2.25-1.523,3.397-0.757
						C267.542,91.065,267.88,92.647,267.151,93.831z"/>
					<path id="XMLID_353_" style="fill:#263238;" d="M244.865,92.177l4.564-2.181c-0.559-1.293-2.035-1.853-3.296-1.25
						C244.874,89.348,244.305,90.885,244.865,92.177z"/>
					<path id="XMLID_352_" style="fill:#263238;" d="M261.662,98.419c-0.203,1.12,0.547,2.218,1.675,2.454
						c1.128,0.236,2.207-0.482,2.409-1.601c0.203-1.121-0.547-2.219-1.675-2.454C262.944,96.582,261.864,97.299,261.662,98.419z"/>
					<path id="XMLID_289_" style="fill:#263238;" d="M246.613,97.24c-0.203,1.12,0.547,2.218,1.675,2.454
						c1.128,0.236,2.207-0.482,2.409-1.601c0.203-1.12-0.547-2.219-1.675-2.454C247.895,95.403,246.815,96.12,246.613,97.24z"/>
					<polygon style="fill:#9A4A4D;" points="262.341,105.354 255.47,107.801 255.435,95.049 					"/>
					<g id="XMLID_00000027589548028076794280000009234740587639575226_">
						<path id="XMLID_00000088111302849595938810000017320521531035707825_" style="fill:#9A4A4D;" d="M251.054,124
							c-7.793-1.606-15.129-4.551-16.554-9.565c0,0-0.477,4.27,3.791,7.181c6.164,4.204,12.552,4.699,12.552,4.699L251.054,124z"/>
					</g>
				</g>
			</g>
			<g>
				<g id="Arm_14_">
					<path id="XMLID_28576_" style="fill:#B16668;" d="M187.871,229.558c-1.874-3.006-3.231-5.194-3.31-6.316
						c-0.001-1.813,3.506,2.195,4.902,2.881c1.396,0.686,2.118,0.833,3.679,0.569c0.809-0.137,1.97-1.179,1.735-1.977
						c-0.05-0.17-0.199-0.245-0.327-0.356c-2.012-1.757-3.512-3.841-5.236-5.96c-1.854-2.281-2.459-3.32-5.068-5.923
						c-1.436-1.433-3.957-3.448-4.43-6.751c-1.553-10.841-1.517-16.634-2.392-27.233c8.488-4.878,21.18-12.364,24.919-14.5
						c5.171-2.954,8.926-6.529,11.181-11.231c3.001-6.26,5.196-18.977,3.607-22.778c-15.961,1.053-20.418,5.876-28.658,11.719
						c-4.64,3.29-7.659,5.372-15.011,11.115c-3.688,2.88-7.367,5.104-14,10.89c-2.196,1.916-5.159,4.756-3.98,11.053
						c1.401,7.483,2.213,11.018,4.076,17.601c1.305,4.61,6.285,24.285,6.763,27.037c0.479,2.752,1.416,6.371,2.313,8.749
						c0.898,2.377,4.43,7.947,6.412,9.377c0.697,0.503,1.458,0.538,2.116,1.046c0.657,0.508,1.048,1.229,1.752,1.688
						c1.072,0.698,1.849,0.339,3.27-0.006c0.557-0.135,1.151-0.186,1.693,0.031c0.542,0.218,0.89,0.646,1.388,0.965
						c1.389,0.891,3.33,1.089,5.229-0.025c1.546,0.873,2.308,1.316,3.824,2.194c0.252,0.146,0.57,0.239,0.795,0.167
						c0.225-0.072,0.287-0.219,0.357-0.361c0.393-0.796,0.472-1.544,0.233-2.416c-0.464-1.69-1.112-2.498-2.361-3.902
						C192.093,235.498,188.827,231.092,187.871,229.558z"/>
				</g>
				<g>
					<path style="fill:#37474F;" d="M187.994,162.401c-4.028-4.928-5.754-11.311-5.163-16.682c-2.458,1.783-5.225,3.857-9.371,7.095
						c-0.136,0.106-0.272,0.21-0.408,0.315c-0.119,5.59,2.917,11.414,6.393,16.379c1.95,2.785,3.773,4.207,4.994,4.917
						c3.555-2.07,7.226-4.217,10.377-6.058C193.335,167.575,190.828,165.868,187.994,162.401z"/>
					<g id="Mobile_00000096737913313531122910000003035284680954924219_">
						<g>
							<path style="fill:#37474F;" d="M161.053,154.825l25.575-16.038c0.658-0.413,1.271-0.274,1.822-0.156
								c0.55,0.119,1.283,0.424,1.589,0.891l7.84,11.967c0.306,0.467,0.168,1.089-0.308,1.387l-25.575,16.038
								c-0.476,0.299-1.152,0.244-1.702,0.126c-0.551-0.119-1.403-0.394-1.709-0.861l-7.84-11.967
								C160.438,155.745,160.389,155.241,161.053,154.825z"/>
							<path style="fill:#263238;" d="M161.697,155.495l8.062,12.306l25.681-16.11l2.578,0.556c-0.056,0.251-0.209,0.481-0.447,0.63
								l-25.575,16.038c-0.476,0.299-1.152,0.244-1.702,0.126c-0.551-0.119-1.403-0.394-1.709-0.861l-7.84-11.967
								c-0.191-0.292-0.304-0.629-0.132-0.951l0.08,0.017L161.697,155.495z"/>
						</g>
						<path style="fill:#455A64;" d="M186.733,138.997l-25.53,16.01c-0.378,0.237-0.487,0.733-0.245,1.103l7.654,11.682
							c0.329,0.502,1.017,0.651,1.528,0.331l25.367-15.908c0.333-0.209,0.43-0.646,0.215-0.973l-7.863-12.002
							C187.618,138.87,187.111,138.76,186.733,138.997z"/>
						<g>
							<path style="fill:#37474F;" d="M186.203,140.156l-23.712,14.87c-0.36,0.225-0.465,0.697-0.234,1.048l7.088,10.82
								c0.23,0.354,0.709,0.457,1.07,0.231l23.887-14.979c0.292-0.183,0.417-0.526,0.328-0.838
								c-0.007-0.024-0.014-0.048-0.022-0.072c-0.02-0.047-0.044-0.094-0.073-0.138l-1.994-3.043c0,0-0.058-0.089-0.13-0.198
								c-0.071-0.11-0.22-0.142-0.332-0.072c-0.111,0.07-0.265,0.032-0.341-0.085l-2.324-3.546
								c-0.076-0.117-0.049-0.269,0.063-0.339c0.104-0.065,0.14-0.198,0.086-0.305c-0.004-0.007-0.008-0.014-0.013-0.021
								l-1.951-2.977l-0.041-0.064C187.265,140.003,186.656,139.871,186.203,140.156z"/>
							<g>
								<path style="fill:#263238;" d="M192.064,146.734l-1.065-1.626c-0.064-0.097-0.19-0.128-0.283-0.07
									c-0.093,0.058-0.116,0.184-0.053,0.281l1.065,1.626c0.063,0.097,0.19,0.128,0.283,0.07
									C192.104,146.957,192.128,146.831,192.064,146.734z"/>
								<g>
									<path style="fill:#263238;" d="M190.521,144.232c-0.072-0.109-0.22-0.141-0.331-0.071c-0.111,0.07-0.143,0.215-0.072,0.324
										c0.072,0.109,0.22,0.141,0.331,0.071C190.56,144.486,190.592,144.341,190.521,144.232z"/>
								</g>
							</g>
						</g>
						<g>
							<g>
								<path style="fill:#455A64;" d="M193.209,154.046c0.188-0.118,0.574-0.163,0.863-0.1c0.14,0.03,0.23,0.08,0.265,0.136
									c0.025,0.04,0.129,0.192,0.155,0.234c0.038,0.06,0.013,0.128-0.084,0.189l-2.084,1.307c-0.188,0.118-0.574,0.163-0.863,0.1
									c-0.133-0.029-0.222-0.075-0.26-0.129c-0.03-0.042-0.133-0.2-0.16-0.241c-0.038-0.06-0.013-0.128,0.083-0.189
									L193.209,154.046z"/>
								<path style="fill:#37474F;" d="M193.362,154.279l-2.084,1.307c-0.188,0.118-0.105,0.264,0.184,0.326
									c0.289,0.062,0.676,0.017,0.863-0.1l2.084-1.307c0.188-0.118,0.105-0.264-0.184-0.326
									C193.936,154.116,193.55,154.161,193.362,154.279z"/>
							</g>
							<g>
								<path style="fill:#455A64;" d="M189.562,156.333c0.188-0.118,0.574-0.163,0.863-0.1c0.14,0.03,0.23,0.08,0.265,0.136
									c0.025,0.04,0.129,0.193,0.155,0.234c0.038,0.06,0.013,0.128-0.084,0.189l-2.084,1.307c-0.188,0.118-0.574,0.163-0.863,0.1
									c-0.133-0.029-0.222-0.075-0.26-0.128c-0.03-0.042-0.133-0.2-0.16-0.241c-0.038-0.06-0.013-0.128,0.083-0.189
									L189.562,156.333z"/>
								<path style="fill:#37474F;" d="M189.715,156.566l-2.084,1.307c-0.188,0.118-0.105,0.264,0.184,0.326
									c0.289,0.062,0.676,0.018,0.863-0.1l2.084-1.307c0.188-0.118,0.105-0.264-0.184-0.326
									C190.289,156.403,189.902,156.448,189.715,156.566z"/>
							</g>
						</g>
					</g>
				</g>
			</g>
		</g>
	</g>
	<g id="Lines">
		<g>
			<polygon style="fill:#E0E0E0;" points="177.781,310.754 188.359,316.566 198.881,322.472 219.842,334.432 240.681,346.603 
				251.057,352.763 261.378,359.019 250.8,353.209 240.277,347.303 219.317,335.341 198.479,323.169 188.102,317.009 			"/>
			<path style="fill:#E0E0E0;" d="M194.818,335.361c2.373,1.234,4.711,2.526,7.068,3.787l7.013,3.882
				c4.67,2.598,9.293,5.277,13.941,7.911c4.606,2.708,9.235,5.377,13.82,8.122l6.867,4.136c2.27,1.412,4.557,2.792,6.811,4.232
				c-2.373-1.233-4.712-2.525-7.069-3.786l-7.014-3.882c-4.668-2.6-9.293-5.276-13.94-7.913c-4.605-2.71-9.235-5.376-13.819-8.123
				l-6.867-4.135C199.36,338.18,197.072,336.799,194.818,335.361z"/>
		</g>
		<g>
			<path style="fill:#E0E0E0;" d="M151.706,272.131l-8.677-5.191c-5.792-3.448-11.628-6.821-17.441-10.233
				c-5.856-3.338-9.045-5.191-14.922-8.492l-6.253-3.499v0.696l5.85,3.499c5.79,3.451,8.987,5.29,14.799,8.704
				c5.854,3.341,11.686,6.72,17.562,10.024l8.824,4.937c2.96,1.612,5.903,3.256,8.879,4.841
				C157.47,275.627,154.579,273.895,151.706,272.131z"/>
			<path style="fill:#E0E0E0;" d="M107.36,261.511c1.557,0.77,3.08,1.597,4.621,2.394l4.565,2.489
				c3.043,1.66,6.045,3.392,9.046,5.124c2.989,1.754,5.976,3.509,8.923,5.335l4.419,2.742c1.453,0.947,2.925,1.863,4.362,2.838
				c-1.557-0.769-3.08-1.596-4.622-2.393l-4.566-2.488c-3.043-1.661-6.044-3.392-9.045-5.126c-2.988-1.755-5.976-3.51-8.922-5.336
				l-4.419-2.741C110.27,263.401,108.798,262.485,107.36,261.511z"/>
		</g>
	</g>
</g>
<g id="Speech_Bubble">
	<g id="Speech_Bubble_00000061446769465883051480000006549700044001533595_">
		<g id="Speech_Bubble_00000176747211798259212750000000344147374757788067_">
			<path style="fill:#FFFFFF;" d="M309.786,72.966c-5.493,3.494-9.127,8.817-10.637,14.675l-0.546,2.772
				c-0.779,5.599,0.34,11.493,3.606,16.629c7.303,11.483,22.588,14.884,34.071,7.58c5.135-3.266,8.648-8.131,10.316-13.531
				l0.681-2.742c1.115-5.946,0.082-12.307-3.412-17.801C336.558,69.06,321.273,65.66,309.786,72.966z"/>
			<path style="fill:#455A64;" d="M308.701,71.174c-11.189,7.089-15.323,21.156-10.352,32.981l-4.943,6.69
				c-0.844,1.142,0.159,2.725,1.552,2.45l8.16-1.612c8.568,9.548,23.054,11.821,34.244,4.731
				c12.472-7.902,16.191-24.479,8.289-36.951C337.75,66.991,321.173,63.272,308.701,71.174z M343.884,80.583
				c3.484,5.499,4.507,11.862,3.381,17.807l-0.685,2.741c-1.678,5.398-5.199,10.256-10.34,13.513
				c-11.496,7.283-26.775,3.855-34.057-7.64c-3.257-5.141-4.365-11.038-3.577-16.635l0.551-2.771
				c1.521-5.855,5.164-11.172,10.663-14.656C321.32,65.655,336.599,69.083,343.884,80.583z"/>
		</g>
		<g id="Check_00000075135615178258740850000006683212318993124783_">
			<path style="fill:#BA68C8;" d="M319.776,106.955c-0.946,0-1.853-0.391-2.502-1.085l-7.771-8.297
				c-1.294-1.382-1.223-3.551,0.159-4.846c1.383-1.295,3.552-1.222,4.846,0.159l5.047,5.389l11.941-15.124
				c1.172-1.486,3.327-1.741,4.815-0.567c1.486,1.173,1.74,3.329,0.567,4.815l-14.41,18.252c-0.619,0.784-1.548,1.259-2.546,1.301
				C319.873,106.955,319.824,106.955,319.776,106.955z"/>
		</g>
	</g>
</g>
</svg>
